STARTFONT 2.3
FONT -FontForge-Syncopate-Book-R-Normal--10-100-72-72-P-75-ISO10646-1
SIZE 10 72 72  2
FONTBOUNDINGBOX 19 13 -2 -3
COMMENT "Generated by fontforge, http://fontforge.sourceforge.net"
COMMENT "Copyright (c) 2010 by Brian J. Bonislawsky DBA Astigmatic (AOETI). All rights reserved. Available under the Apache 2.0 licence.http://www.apache.org/licenses/LICENSE-2.0.html"
STARTPROPERTIES 40
FOUNDRY "FontForge"
FAMILY_NAME "Syncopate"
WEIGHT_NAME "Book"
SLANT "R"
SETWIDTH_NAME "Normal"
ADD_STYLE_NAME ""
PIXEL_SIZE 10
POINT_SIZE 100
RESOLUTION_X 72
RESOLUTION_Y 72
SPACING "P"
AVERAGE_WIDTH 75
CHARSET_REGISTRY "ISO10646"
CHARSET_ENCODING "1"
FONTNAME_REGISTRY ""
CHARSET_COLLECTIONS "ISO8859-2 ISO8859-9 ISO8859-4 ISO10646-1"
BITS_PER_PIXEL 2
FONT_NAME "Syncopate-Regular"
FACE_NAME "Syncopate Regular"
COPYRIGHT "Copyright (c) 2010 by Brian J. Bonislawsky DBA Astigmatic (AOETI). All rights reserved. Available under the Apache 2.0 licence.http://www.apache.org/licenses/LICENSE-2.0.html"
FONT_VERSION "001.001"
FONT_ASCENT 8
FONT_DESCENT 2
UNDERLINE_POSITION -1
UNDERLINE_THICKNESS 1
X_HEIGHT 6
CAP_HEIGHT 6
RAW_ASCENT 799
RAW_DESCENT 200
NORM_SPACE 4
RELATIVE_WEIGHT 40
RELATIVE_SETWIDTH 70
SUPERSCRIPT_X 0
SUPERSCRIPT_Y 2
SUPERSCRIPT_SIZE 2
SUBSCRIPT_X 0
SUBSCRIPT_Y 2
SUBSCRIPT_SIZE 2
AVG_LOWERCASE_WIDTH 85
AVG_UPPERCASE_WIDTH 82
ENDPROPERTIES
CHARS 370
STARTCHAR space
ENCODING 32
SWIDTH 375 0
DWIDTH 4 0
BBX 1 1 0 0
BITMAP
00
ENDCHAR
STARTCHAR exclam
ENCODING 33
SWIDTH 274 0
DWIDTH 3 0
BBX 1 7 1 0
BITMAP
80
80
80
80
40
00
80
ENDCHAR
STARTCHAR quotedbl
ENCODING 34
SWIDTH 290 0
DWIDTH 3 0
BBX 3 2 0 5
BITMAP
88
84
ENDCHAR
STARTCHAR numbersign
ENCODING 35
SWIDTH 701 0
DWIDTH 7 0
BBX 7 7 0 0
BITMAP
0420
0410
3FF8
0440
0440
BFF0
1040
ENDCHAR
STARTCHAR dollar
ENCODING 36
SWIDTH 767 0
DWIDTH 8 0
BBX 6 9 1 -1
BITMAP
0400
7FD0
8400
9800
2E40
0560
0460
FF90
0400
ENDCHAR
STARTCHAR percent
ENCODING 37
SWIDTH 992 0
DWIDTH 10 0
BBX 9 7 0 0
BITMAP
2E0500
524800
2E2000
008000
015F40
022080
081F40
ENDCHAR
STARTCHAR ampersand
ENCODING 38
SWIDTH 926 0
DWIDTH 9 0
BBX 7 7 1 0
BITMAP
2F80
2080
2500
6800
8248
9064
6F98
ENDCHAR
STARTCHAR quotesingle
ENCODING 39
SWIDTH 140 0
DWIDTH 1 0
BBX 1 2 0 5
BITMAP
80
80
ENDCHAR
STARTCHAR parenleft
ENCODING 40
SWIDTH 420 0
DWIDTH 4 0
BBX 2 8 1 -1
BITMAP
20
50
80
40
40
80
50
20
ENDCHAR
STARTCHAR parenright
ENCODING 41
SWIDTH 420 0
DWIDTH 4 0
BBX 3 8 1 -1
BITMAP
80
20
20
14
14
20
20
80
ENDCHAR
STARTCHAR asterisk
ENCODING 42
SWIDTH 503 0
DWIDTH 5 0
BBX 3 4 1 3
BITMAP
20
A8
A8
20
ENDCHAR
STARTCHAR plus
ENCODING 43
SWIDTH 634 0
DWIDTH 6 0
BBX 5 5 1 1
BITMAP
0400
0400
FF80
0400
0400
ENDCHAR
STARTCHAR comma
ENCODING 44
SWIDTH 185 0
DWIDTH 2 0
BBX 2 2 0 -1
BITMAP
50
80
ENDCHAR
STARTCHAR hyphen
ENCODING 45
SWIDTH 540 0
DWIDTH 5 0
BBX 5 1 0 3
BITMAP
7F80
ENDCHAR
STARTCHAR period
ENCODING 46
SWIDTH 185 0
DWIDTH 2 0
BBX 2 1 0 0
BITMAP
90
ENDCHAR
STARTCHAR slash
ENCODING 47
SWIDTH 500 0
DWIDTH 5 0
BBX 5 7 0 0
BITMAP
0140
0200
0500
0800
1400
2000
5000
ENDCHAR
STARTCHAR zero
ENCODING 48
SWIDTH 833 0
DWIDTH 8 0
BBX 8 7 0 0
BITMAP
0BE4
2418
5002
5002
5002
2418
0BE4
ENDCHAR
STARTCHAR one
ENCODING 49
SWIDTH 339 0
DWIDTH 3 0
BBX 3 7 0 0
BITMAP
F4
14
14
14
14
14
14
ENDCHAR
STARTCHAR two
ENCODING 50
SWIDTH 728 0
DWIDTH 7 0
BBX 7 7 0 0
BITMAP
BF90
0064
0004
0020
0180
1500
BFF8
ENDCHAR
STARTCHAR three
ENCODING 51
SWIDTH 726 0
DWIDTH 7 0
BBX 7 7 0 0
BITMAP
7FD0
0024
0060
0BD0
0014
0014
BFE0
ENDCHAR
STARTCHAR four
ENCODING 52
SWIDTH 769 0
DWIDTH 8 0
BBX 8 7 0 0
BITMAP
00A0
0220
1820
6020
BFFD
0020
0020
ENDCHAR
STARTCHAR five
ENCODING 53
SWIDTH 738 0
DWIDTH 7 0
BBX 7 7 0 0
BITMAP
3FF4
1000
1000
3FE0
0018
0018
7FE0
ENDCHAR
STARTCHAR six
ENCODING 54
SWIDTH 772 0
DWIDTH 8 0
BBX 8 7 0 0
BITMAP
0BF8
2400
2000
6BE4
6409
2408
0BE4
ENDCHAR
STARTCHAR seven
ENCODING 55
SWIDTH 669 0
DWIDTH 7 0
BBX 7 7 0 0
BITMAP
FFF4
0020
0050
0080
0200
0500
0800
ENDCHAR
STARTCHAR eight
ENCODING 56
SWIDTH 793 0
DWIDTH 8 0
BBX 8 7 0 0
BITMAP
1BE4
2418
2414
0BE0
2418
6009
2FE4
ENDCHAR
STARTCHAR nine
ENCODING 57
SWIDTH 776 0
DWIDTH 8 0
BBX 7 7 0 0
BITMAP
1FE0
5018
5018
2FE8
0008
0024
3FD0
ENDCHAR
STARTCHAR colon
ENCODING 58
SWIDTH 245 0
DWIDTH 2 0
BBX 2 5 0 0
BITMAP
60
00
00
00
60
ENDCHAR
STARTCHAR semicolon
ENCODING 59
SWIDTH 234 0
DWIDTH 2 0
BBX 2 6 0 -1
BITMAP
60
00
00
00
50
50
ENDCHAR
STARTCHAR less
ENCODING 60
SWIDTH 634 0
DWIDTH 6 0
BBX 6 5 0 1
BITMAP
0090
1A40
7400
1A40
0090
ENDCHAR
STARTCHAR equal
ENCODING 61
SWIDTH 634 0
DWIDTH 6 0
BBX 5 3 1 2
BITMAP
FF80
0000
FF80
ENDCHAR
STARTCHAR greater
ENCODING 62
SWIDTH 634 0
DWIDTH 6 0
BBX 5 5 1 1
BITMAP
9000
6900
0280
6900
9000
ENDCHAR
STARTCHAR question
ENCODING 63
SWIDTH 568 0
DWIDTH 6 0
BBX 5 7 0 0
BITMAP
7E40
0180
0080
0600
1400
0000
1400
ENDCHAR
STARTCHAR at
ENCODING 64
SWIDTH 1016 0
DWIDTH 10 0
BBX 10 7 0 0
BITMAP
06FE00
190180
21FC50
520890
22FB80
290000
06FD00
ENDCHAR
STARTCHAR A
ENCODING 65
SWIDTH 812 0
DWIDTH 8 0
BBX 8 7 0 0
BITMAP
0280
0290
0920
0824
2418
3FFD
9006
ENDCHAR
STARTCHAR B
ENCODING 66
SWIDTH 836 0
DWIDTH 8 0
BBX 7 7 1 0
BITMAP
FFE0
8024
8024
FFE0
8018
8018
FFE4
ENDCHAR
STARTCHAR C
ENCODING 67
SWIDTH 869 0
DWIDTH 9 0
BBX 8 7 0 0
BITMAP
06FF
2900
6000
5000
6000
2900
06FF
ENDCHAR
STARTCHAR D
ENCODING 68
SWIDTH 910 0
DWIDTH 9 0
BBX 8 7 1 0
BITMAP
FFE0
8018
8005
8005
8005
801C
FFE0
ENDCHAR
STARTCHAR E
ENCODING 69
SWIDTH 754 0
DWIDTH 8 0
BBX 6 7 1 0
BITMAP
FFE0
8000
8000
FFD0
8000
8000
FFE0
ENDCHAR
STARTCHAR F
ENCODING 70
SWIDTH 687 0
DWIDTH 7 0
BBX 6 7 1 0
BITMAP
FFD0
8000
8000
FFD0
8000
8000
8000
ENDCHAR
STARTCHAR G
ENCODING 71
SWIDTH 910 0
DWIDTH 9 0
BBX 9 7 0 0
BITMAP
06FF00
290000
600000
500000
603F40
290140
06FE00
ENDCHAR
STARTCHAR H
ENCODING 72
SWIDTH 949 0
DWIDTH 10 0
BBX 8 7 1 0
BITMAP
8005
8005
8005
FFFD
8005
8005
8005
ENDCHAR
STARTCHAR I
ENCODING 73
SWIDTH 287 0
DWIDTH 3 0
BBX 1 7 1 0
BITMAP
80
80
80
80
80
80
80
ENDCHAR
STARTCHAR J
ENCODING 74
SWIDTH 590 0
DWIDTH 6 0
BBX 5 7 0 0
BITMAP
0080
0080
0080
0080
0080
0180
FE00
ENDCHAR
STARTCHAR K
ENCODING 75
SWIDTH 806 0
DWIDTH 8 0
BBX 7 7 1 0
BITMAP
8060
8140
9800
A000
8900
8180
8024
ENDCHAR
STARTCHAR L
ENCODING 76
SWIDTH 701 0
DWIDTH 7 0
BBX 6 7 1 0
BITMAP
8000
8000
8000
8000
8000
8000
FFE0
ENDCHAR
STARTCHAR M
ENCODING 77
SWIDTH 1139 0
DWIDTH 11 0
BBX 10 7 1 0
BITMAP
C00090
A001D0
A40250
880950
861850
826050
80D050
ENDCHAR
STARTCHAR N
ENCODING 78
SWIDTH 936 0
DWIDTH 9 0
BBX 8 7 1 0
BITMAP
D005
A405
8905
8205
8085
8025
8009
ENDCHAR
STARTCHAR O
ENCODING 79
SWIDTH 983 0
DWIDTH 10 0
BBX 9 7 0 0
BITMAP
06F900
290640
600080
500080
600080
280680
06F900
ENDCHAR
STARTCHAR P
ENCODING 80
SWIDTH 818 0
DWIDTH 8 0
BBX 7 7 1 0
BITMAP
FFE0
8018
8018
FFE0
8000
8000
8000
ENDCHAR
STARTCHAR Q
ENCODING 81
SWIDTH 983 0
DWIDTH 10 0
BBX 10 7 0 0
BITMAP
06F900
290640
600080
500040
600080
281A80
06FAA0
ENDCHAR
STARTCHAR R
ENCODING 82
SWIDTH 833 0
DWIDTH 8 0
BBX 7 7 1 0
BITMAP
FFE0
8024
8024
FFE0
8080
8020
8018
ENDCHAR
STARTCHAR S
ENCODING 83
SWIDTH 787 0
DWIDTH 8 0
BBX 6 7 1 0
BITMAP
7FE0
8000
9400
1A80
0020
0060
FF90
ENDCHAR
STARTCHAR T
ENCODING 84
SWIDTH 708 0
DWIDTH 7 0
BBX 7 7 0 0
BITMAP
BFFC
0200
0200
0200
0200
0200
0200
ENDCHAR
STARTCHAR U
ENCODING 85
SWIDTH 891 0
DWIDTH 9 0
BBX 7 7 1 0
BITMAP
8008
8008
8008
8008
8008
9028
2FE0
ENDCHAR
STARTCHAR V
ENCODING 86
SWIDTH 817 0
DWIDTH 8 0
BBX 8 7 0 0
BITMAP
5002
2009
2408
0824
0920
0290
0280
ENDCHAR
STARTCHAR W
ENCODING 87
SWIDTH 1266 0
DWIDTH 13 0
BBX 12 7 0 0
BITMAP
501C02
202502
202205
145208
088148
058094
034060
ENDCHAR
STARTCHAR X
ENCODING 88
SWIDTH 821 0
DWIDTH 8 0
BBX 7 7 1 0
BITMAP
8024
2050
1940
0A00
1540
6050
8014
ENDCHAR
STARTCHAR Y
ENCODING 89
SWIDTH 763 0
DWIDTH 8 0
BBX 7 7 0 0
BITMAP
5008
1420
0990
0280
0100
0100
0100
ENDCHAR
STARTCHAR Z
ENCODING 90
SWIDTH 728 0
DWIDTH 7 0
BBX 7 7 0 0
BITMAP
3FF4
0010
0040
0100
0400
1000
7FF8
ENDCHAR
STARTCHAR bracketleft
ENCODING 91
SWIDTH 409 0
DWIDTH 4 0
BBX 3 8 1 -1
BITMAP
B8
80
80
80
80
80
80
B8
ENDCHAR
STARTCHAR backslash
ENCODING 92
SWIDTH 500 0
DWIDTH 5 0
BBX 5 7 0 0
BITMAP
5000
2000
1400
0800
0500
0200
0140
ENDCHAR
STARTCHAR bracketright
ENCODING 93
SWIDTH 409 0
DWIDTH 4 0
BBX 3 8 0 -1
BITMAP
B8
08
08
08
08
08
08
B8
ENDCHAR
STARTCHAR asciicircum
ENCODING 94
SWIDTH 459 0
DWIDTH 5 0
BBX 4 3 0 4
BITMAP
1C
25
52
ENDCHAR
STARTCHAR underscore
ENCODING 95
SWIDTH 500 0
DWIDTH 5 0
BBX 5 1 0 -2
BITMAP
FFC0
ENDCHAR
STARTCHAR grave
ENCODING 96
SWIDTH 527 0
DWIDTH 5 0
BBX 2 2 1 6
BITMAP
80
20
ENDCHAR
STARTCHAR a
ENCODING 97
SWIDTH 888 0
DWIDTH 9 0
BBX 8 7 0 0
BITMAP
2FF8
0006
0002
06BE
2502
601A
2FE6
ENDCHAR
STARTCHAR b
ENCODING 98
SWIDTH 836 0
DWIDTH 8 0
BBX 7 7 1 0
BITMAP
FFE0
8024
8024
FFE0
8018
8018
FFE4
ENDCHAR
STARTCHAR c
ENCODING 99
SWIDTH 869 0
DWIDTH 9 0
BBX 8 7 0 0
BITMAP
06FF
2900
6000
5000
6000
2900
06FF
ENDCHAR
STARTCHAR d
ENCODING 100
SWIDTH 910 0
DWIDTH 9 0
BBX 8 7 1 0
BITMAP
FFE0
8018
8005
8005
8005
801C
FFE0
ENDCHAR
STARTCHAR e
ENCODING 101
SWIDTH 910 0
DWIDTH 9 0
BBX 9 7 0 0
BITMAP
07F800
280600
600140
7FFF40
500000
290000
06FF00
ENDCHAR
STARTCHAR f
ENCODING 102
SWIDTH 817 0
DWIDTH 8 0
BBX 7 7 1 0
BITMAP
2FF8
9000
8000
FFF4
8000
8000
8000
ENDCHAR
STARTCHAR g
ENCODING 103
SWIDTH 910 0
DWIDTH 9 0
BBX 9 7 0 0
BITMAP
06FF00
290000
600000
500000
603F40
290140
06FE00
ENDCHAR
STARTCHAR h
ENCODING 104
SWIDTH 949 0
DWIDTH 10 0
BBX 8 7 1 0
BITMAP
8005
8005
8005
FFFD
8005
8005
8005
ENDCHAR
STARTCHAR i
ENCODING 105
SWIDTH 287 0
DWIDTH 3 0
BBX 1 7 1 0
BITMAP
80
80
80
80
80
80
80
ENDCHAR
STARTCHAR j
ENCODING 106
SWIDTH 590 0
DWIDTH 6 0
BBX 5 7 0 0
BITMAP
0080
0080
0080
0080
0080
0180
FE00
ENDCHAR
STARTCHAR k
ENCODING 107
SWIDTH 867 0
DWIDTH 9 0
BBX 7 7 1 0
BITMAP
8008
8020
8190
FF40
81A0
8018
8008
ENDCHAR
STARTCHAR l
ENCODING 108
SWIDTH 709 0
DWIDTH 7 0
BBX 6 7 1 0
BITMAP
8000
8000
8000
8000
8000
9000
6FF0
ENDCHAR
STARTCHAR m
ENCODING 109
SWIDTH 1246 0
DWIDTH 12 0
BBX 11 7 1 0
BITMAP
9F8BD0
E0B424
802014
802014
802014
802014
802014
ENDCHAR
STARTCHAR n
ENCODING 110
SWIDTH 933 0
DWIDTH 9 0
BBX 8 7 1 0
BITMAP
8BF4
B408
8005
8005
8005
8005
8005
ENDCHAR
STARTCHAR o
ENCODING 111
SWIDTH 983 0
DWIDTH 10 0
BBX 9 7 0 0
BITMAP
06F900
290640
600080
500080
600080
280680
06F900
ENDCHAR
STARTCHAR p
ENCODING 112
SWIDTH 818 0
DWIDTH 8 0
BBX 7 7 1 0
BITMAP
FFE0
8018
8018
FFE0
8000
8000
8000
ENDCHAR
STARTCHAR q
ENCODING 113
SWIDTH 983 0
DWIDTH 10 0
BBX 10 7 0 0
BITMAP
06F900
290640
600080
500080
600080
280640
06FAA0
ENDCHAR
STARTCHAR r
ENCODING 114
SWIDTH 609 0
DWIDTH 6 0
BBX 5 7 1 0
BITMAP
8BC0
A400
8000
8000
8000
8000
8000
ENDCHAR
STARTCHAR s
ENCODING 115
SWIDTH 787 0
DWIDTH 8 0
BBX 6 7 1 0
BITMAP
7FE0
8000
9400
1A80
0020
0060
FF90
ENDCHAR
STARTCHAR t
ENCODING 116
SWIDTH 708 0
DWIDTH 7 0
BBX 7 7 0 0
BITMAP
BFFC
0200
0200
0200
0200
0200
0200
ENDCHAR
STARTCHAR u
ENCODING 117
SWIDTH 931 0
DWIDTH 9 0
BBX 8 7 1 0
BITMAP
8005
8005
8005
8005
8009
906D
2F95
ENDCHAR
STARTCHAR v
ENCODING 118
SWIDTH 817 0
DWIDTH 8 0
BBX 8 7 0 0
BITMAP
5002
2009
2408
0824
0920
0290
0280
ENDCHAR
STARTCHAR w
ENCODING 119
SWIDTH 1266 0
DWIDTH 13 0
BBX 12 7 0 0
BITMAP
501C02
202502
202205
145208
088148
058094
034060
ENDCHAR
STARTCHAR x
ENCODING 120
SWIDTH 821 0
DWIDTH 8 0
BBX 7 7 1 0
BITMAP
8024
2050
1940
0A00
1540
6050
8014
ENDCHAR
STARTCHAR y
ENCODING 121
SWIDTH 911 0
DWIDTH 9 0
BBX 7 7 1 0
BITMAP
8008
8008
800C
9068
2F88
0068
FF90
ENDCHAR
STARTCHAR z
ENCODING 122
SWIDTH 728 0
DWIDTH 7 0
BBX 7 7 0 0
BITMAP
3FF4
0010
0040
0100
0400
1000
7FF8
ENDCHAR
STARTCHAR braceleft
ENCODING 123
SWIDTH 386 0
DWIDTH 4 0
BBX 4 8 0 -1
BITMAP
1D
20
20
20
A0
20
20
1D
ENDCHAR
STARTCHAR bar
ENCODING 124
SWIDTH 259 0
DWIDTH 3 0
BBX 1 10 1 -2
BITMAP
80
80
80
80
80
80
80
80
80
80
ENDCHAR
STARTCHAR braceright
ENCODING 125
SWIDTH 386 0
DWIDTH 4 0
BBX 4 8 0 -1
BITMAP
70
14
14
08
0A
08
14
B4
ENDCHAR
STARTCHAR asciitilde
ENCODING 126
SWIDTH 634 0
DWIDTH 6 0
BBX 6 2 0 3
BITMAP
2910
56D0
ENDCHAR
STARTCHAR nonbreakingspace
ENCODING 160
SWIDTH 375 0
DWIDTH 4 0
BBX 1 1 0 0
BITMAP
00
ENDCHAR
STARTCHAR exclamdown
ENCODING 161
SWIDTH 274 0
DWIDTH 3 0
BBX 1 7 1 0
BITMAP
80
00
40
80
80
80
80
ENDCHAR
STARTCHAR cent
ENCODING 162
SWIDTH 736 0
DWIDTH 7 0
BBX 7 8 0 -1
BITMAP
0140
1BFC
2540
5140
5140
2540
1BFC
0140
ENDCHAR
STARTCHAR sterling
ENCODING 163
SWIDTH 792 0
DWIDTH 8 0
BBX 8 7 0 0
BITMAP
02FC
0900
0800
7FF0
0800
1800
7FFD
ENDCHAR
STARTCHAR currency
ENCODING 164
SWIDTH 560 0
DWIDTH 6 0
BBX 4 5 1 2
BITMAP
01
BA
85
85
BA
ENDCHAR
STARTCHAR yen
ENCODING 165
SWIDTH 811 0
DWIDTH 8 0
BBX 7 7 1 0
BITMAP
8024
5050
1580
FFF4
0500
FFF4
0500
ENDCHAR
STARTCHAR brokenbar
ENCODING 166
SWIDTH 259 0
DWIDTH 3 0
BBX 1 9 1 -2
BITMAP
80
80
80
80
00
80
80
80
80
ENDCHAR
STARTCHAR section
ENCODING 167
SWIDTH 500 0
DWIDTH 5 0
BBX 5 7 0 0
BITMAP
2F00
2400
2E00
5140
2E00
0200
3E00
ENDCHAR
STARTCHAR dieresis
ENCODING 168
SWIDTH 527 0
DWIDTH 5 0
BBX 3 1 1 6
BITMAP
88
ENDCHAR
STARTCHAR copyright
ENCODING 169
SWIDTH 770 0
DWIDTH 8 0
BBX 8 7 0 0
BITMAP
0BD0
2428
5BD8
4805
5BD8
2418
0BE0
ENDCHAR
STARTCHAR ordfeminine
ENCODING 170
SWIDTH 497 0
DWIDTH 5 0
BBX 5 5 0 2
BITMAP
7F40
6F40
7E40
0000
BF40
ENDCHAR
STARTCHAR guillemotleft
ENCODING 171
SWIDTH 440 0
DWIDTH 4 0
BBX 4 3 0 2
BITMAP
22
98
22
ENDCHAR
STARTCHAR logicalnot
ENCODING 172
SWIDTH 634 0
DWIDTH 6 0
BBX 5 3 1 2
BITMAP
FF80
0080
0080
ENDCHAR
STARTCHAR uni00AD
ENCODING 173
SWIDTH 540 0
DWIDTH 5 0
BBX 5 1 0 3
BITMAP
7F80
ENDCHAR
STARTCHAR registered
ENCODING 174
SWIDTH 600 0
DWIDTH 6 0
BBX 6 5 0 2
BITMAP
1F40
6F90
4F10
6990
1F40
ENDCHAR
STARTCHAR macron
ENCODING 175
SWIDTH 527 0
DWIDTH 5 0
BBX 3 1 1 6
BITMAP
BC
ENDCHAR
STARTCHAR degree
ENCODING 176
SWIDTH 373 0
DWIDTH 4 0
BBX 2 2 1 5
BITMAP
E0
E0
ENDCHAR
STARTCHAR plusminus
ENCODING 177
SWIDTH 634 0
DWIDTH 6 0
BBX 5 6 1 0
BITMAP
0400
0400
FF80
0400
0400
FF80
ENDCHAR
STARTCHAR twosuperior
ENCODING 178
SWIDTH 511 0
DWIDTH 5 0
BBX 5 4 0 3
BITMAP
BE00
0140
0500
BF80
ENDCHAR
STARTCHAR threesuperior
ENCODING 179
SWIDTH 512 0
DWIDTH 5 0
BBX 5 4 0 3
BITMAP
BF00
1E00
0140
BE00
ENDCHAR
STARTCHAR acute
ENCODING 180
SWIDTH 527 0
DWIDTH 5 0
BBX 3 2 2 6
BITMAP
24
90
ENDCHAR
STARTCHAR micro
ENCODING 181
SWIDTH 705 0
DWIDTH 7 0
BBX 6 7 0 -2
BITMAP
1020
2020
2020
30A0
6F60
5000
8000
ENDCHAR
STARTCHAR paragraph
ENCODING 182
SWIDTH 585 0
DWIDTH 6 0
BBX 5 7 0 0
BITMAP
2F80
7D40
7D40
2D40
0140
0140
0140
ENDCHAR
STARTCHAR periodcentered
ENCODING 183
SWIDTH 185 0
DWIDTH 2 0
BBX 2 1 0 3
BITMAP
90
ENDCHAR
STARTCHAR cedilla
ENCODING 184
SWIDTH 527 0
DWIDTH 5 0
BBX 3 2 1 -2
BITMAP
28
78
ENDCHAR
STARTCHAR onesuperior
ENCODING 185
SWIDTH 261 0
DWIDTH 3 0
BBX 2 4 0 3
BITMAP
E0
20
20
20
ENDCHAR
STARTCHAR ordmasculine
ENCODING 186
SWIDTH 520 0
DWIDTH 5 0
BBX 5 5 0 2
BITMAP
6F40
9080
6F40
0000
7F80
ENDCHAR
STARTCHAR guillemotright
ENCODING 187
SWIDTH 440 0
DWIDTH 4 0
BBX 4 3 0 2
BITMAP
55
22
55
ENDCHAR
STARTCHAR onequarter
ENCODING 188
SWIDTH 857 0
DWIDTH 9 0
BBX 8 7 0 0
BITMAP
A014
2020
2080
211C
0564
08FF
2004
ENDCHAR
STARTCHAR onehalf
ENCODING 189
SWIDTH 937 0
DWIDTH 9 0
BBX 9 7 0 0
BITMAP
A01400
202000
208000
212F40
050140
080500
202F80
ENDCHAR
STARTCHAR threequarters
ENCODING 190
SWIDTH 978 0
DWIDTH 10 0
BBX 10 7 0 0
BITMAP
7D0200
190800
062000
BD5240
009940
022FD0
080140
ENDCHAR
STARTCHAR questiondown
ENCODING 191
SWIDTH 568 0
DWIDTH 6 0
BBX 5 7 0 0
BITMAP
0200
0000
0200
1900
1000
6000
2FC0
ENDCHAR
STARTCHAR Agrave
ENCODING 192
SWIDTH 812 0
DWIDTH 8 0
BBX 8 10 0 0
BITMAP
0500
0140
0000
0280
0290
0920
0824
2418
3FFD
9006
ENDCHAR
STARTCHAR Aacute
ENCODING 193
SWIDTH 812 0
DWIDTH 8 0
BBX 8 10 0 0
BITMAP
0060
0140
0000
0280
0290
0920
0824
2418
3FFD
9006
ENDCHAR
STARTCHAR Acircumflex
ENCODING 194
SWIDTH 812 0
DWIDTH 8 0
BBX 8 10 0 0
BITMAP
0180
0410
0000
0280
0290
0920
0824
2418
3FFD
9006
ENDCHAR
STARTCHAR Atilde
ENCODING 195
SWIDTH 812 0
DWIDTH 8 0
BBX 8 10 0 0
BITMAP
0750
0590
0000
0280
0290
0920
0824
2418
3FFD
9006
ENDCHAR
STARTCHAR Adieresis
ENCODING 196
SWIDTH 812 0
DWIDTH 8 0
BBX 8 9 0 0
BITMAP
0550
0000
0280
0290
0920
0824
2418
3FFD
9006
ENDCHAR
STARTCHAR Aring
ENCODING 197
SWIDTH 812 0
DWIDTH 8 0
BBX 8 10 0 0
BITMAP
03D0
03D0
0000
0280
0290
0920
0824
2418
3FFD
9006
ENDCHAR
STARTCHAR AE
ENCODING 198
SWIDTH 1172 0
DWIDTH 12 0
BBX 11 7 0 0
BITMAP
00BFFC
016000
022000
042FF8
1FF000
202000
802FFC
ENDCHAR
STARTCHAR Ccedilla
ENCODING 199
SWIDTH 869 0
DWIDTH 9 0
BBX 8 9 0 -2
BITMAP
06FF
2900
6000
5000
6000
2900
06FF
00A0
01E0
ENDCHAR
STARTCHAR Egrave
ENCODING 200
SWIDTH 754 0
DWIDTH 8 0
BBX 6 10 1 0
BITMAP
2400
0900
0000
FFE0
8000
8000
FFD0
8000
8000
FFE0
ENDCHAR
STARTCHAR Eacute
ENCODING 201
SWIDTH 754 0
DWIDTH 8 0
BBX 6 10 1 0
BITMAP
0140
0500
0000
FFE0
8000
8000
FFD0
8000
8000
FFE0
ENDCHAR
STARTCHAR Ecircumflex
ENCODING 202
SWIDTH 754 0
DWIDTH 8 0
BBX 6 10 1 0
BITMAP
0900
1140
0000
FFE0
8000
8000
FFD0
8000
8000
FFE0
ENDCHAR
STARTCHAR Edieresis
ENCODING 203
SWIDTH 754 0
DWIDTH 8 0
BBX 6 9 1 0
BITMAP
1640
0000
FFE0
8000
8000
FFD0
8000
8000
FFE0
ENDCHAR
STARTCHAR Igrave
ENCODING 204
SWIDTH 287 0
DWIDTH 3 0
BBX 2 10 0 0
BITMAP
80
60
00
20
20
20
20
20
20
20
ENDCHAR
STARTCHAR Iacute
ENCODING 205
SWIDTH 287 0
DWIDTH 3 0
BBX 2 10 1 0
BITMAP
20
80
00
80
80
80
80
80
80
80
ENDCHAR
STARTCHAR Icircumflex
ENCODING 206
SWIDTH 287 0
DWIDTH 3 0
BBX 4 10 -1 0
BITMAP
18
51
00
08
08
08
08
08
08
08
ENDCHAR
STARTCHAR Idieresis
ENCODING 207
SWIDTH 287 0
DWIDTH 3 0
BBX 3 9 0 0
BITMAP
88
00
20
20
20
20
20
20
20
ENDCHAR
STARTCHAR Eth
ENCODING 208
SWIDTH 910 0
DWIDTH 9 0
BBX 9 7 0 0
BITMAP
3FF800
200600
200140
FF4140
200140
200600
3FF800
ENDCHAR
STARTCHAR Ntilde
ENCODING 209
SWIDTH 936 0
DWIDTH 9 0
BBX 8 10 1 0
BITMAP
0A50
09C0
0000
D005
A405
8905
8205
8085
8025
8009
ENDCHAR
STARTCHAR Ograve
ENCODING 210
SWIDTH 983 0
DWIDTH 10 0
BBX 9 10 0 0
BITMAP
024000
005000
000000
06F900
290640
600080
500080
600080
280680
06F900
ENDCHAR
STARTCHAR Oacute
ENCODING 211
SWIDTH 983 0
DWIDTH 10 0
BBX 9 10 0 0
BITMAP
001400
005000
000000
06F900
290640
600080
500080
600080
280680
06F900
ENDCHAR
STARTCHAR Ocircumflex
ENCODING 212
SWIDTH 983 0
DWIDTH 10 0
BBX 9 10 0 0
BITMAP
009000
010400
000000
06F900
290640
600080
500080
600080
280680
06F900
ENDCHAR
STARTCHAR Otilde
ENCODING 213
SWIDTH 983 0
DWIDTH 10 0
BBX 9 10 0 0
BITMAP
019400
027400
000000
06F900
290640
600080
500080
600080
280680
06F900
ENDCHAR
STARTCHAR Odieresis
ENCODING 214
SWIDTH 983 0
DWIDTH 10 0
BBX 9 9 0 0
BITMAP
015400
000000
06F900
290640
600080
500080
600080
280680
06F900
ENDCHAR
STARTCHAR multiply
ENCODING 215
SWIDTH 634 0
DWIDTH 6 0
BBX 4 4 1 1
BITMAP
42
28
28
42
ENDCHAR
STARTCHAR Oslash
ENCODING 216
SWIDTH 983 0
DWIDTH 10 0
BBX 9 9 0 -1
BITMAP
000200
06FA00
290A80
601080
505040
614080
2A0680
0BF900
040000
ENDCHAR
STARTCHAR Ugrave
ENCODING 217
SWIDTH 891 0
DWIDTH 9 0
BBX 7 10 1 0
BITMAP
0800
0600
0000
8008
8008
8008
8008
8008
9028
2FE0
ENDCHAR
STARTCHAR Uacute
ENCODING 218
SWIDTH 891 0
DWIDTH 9 0
BBX 7 10 1 0
BITMAP
0080
0200
0000
8008
8008
8008
8008
8008
9028
2FE0
ENDCHAR
STARTCHAR Ucircumflex
ENCODING 219
SWIDTH 891 0
DWIDTH 9 0
BBX 7 10 1 0
BITMAP
0600
1440
0000
8008
8008
8008
8008
8008
9028
2FE0
ENDCHAR
STARTCHAR Udieresis
ENCODING 220
SWIDTH 891 0
DWIDTH 9 0
BBX 7 9 1 0
BITMAP
0880
0000
8008
8008
8008
8008
8008
9028
2FE0
ENDCHAR
STARTCHAR Yacute
ENCODING 221
SWIDTH 763 0
DWIDTH 8 0
BBX 7 10 0 0
BITMAP
0050
0140
0000
5008
1420
0990
0280
0100
0100
0100
ENDCHAR
STARTCHAR Thorn
ENCODING 222
SWIDTH 787 0
DWIDTH 8 0
BBX 6 7 1 0
BITMAP
8000
FFD0
8020
8020
FFD0
8000
8000
ENDCHAR
STARTCHAR germandbls
ENCODING 223
SWIDTH 863 0
DWIDTH 9 0
BBX 7 7 1 0
BITMAP
2FD0
9024
8024
8FE0
8018
8018
AFE4
ENDCHAR
STARTCHAR agrave
ENCODING 224
SWIDTH 888 0
DWIDTH 9 0
BBX 8 10 0 0
BITMAP
0600
0180
0000
2FF8
0006
0002
06BE
2502
601A
2FE6
ENDCHAR
STARTCHAR aacute
ENCODING 225
SWIDTH 888 0
DWIDTH 9 0
BBX 8 10 0 0
BITMAP
0020
0080
0000
2FF8
0006
0002
06BE
2502
601A
2FE6
ENDCHAR
STARTCHAR acircumflex
ENCODING 226
SWIDTH 888 0
DWIDTH 9 0
BBX 8 10 0 0
BITMAP
0180
0510
0000
2FF8
0006
0002
06BE
2502
601A
2FE6
ENDCHAR
STARTCHAR atilde
ENCODING 227
SWIDTH 888 0
DWIDTH 9 0
BBX 8 10 0 0
BITMAP
0350
05A0
0000
2FF8
0006
0002
06BE
2502
601A
2FE6
ENDCHAR
STARTCHAR adieresis
ENCODING 228
SWIDTH 888 0
DWIDTH 9 0
BBX 8 9 0 0
BITMAP
0220
0000
2FF8
0006
0002
06BE
2502
601A
2FE6
ENDCHAR
STARTCHAR aring
ENCODING 229
SWIDTH 888 0
DWIDTH 9 0
BBX 8 10 0 0
BITMAP
02D0
02D0
0000
2FF8
0006
0002
06BE
2502
601A
2FE6
ENDCHAR
STARTCHAR ae
ENCODING 230
SWIDTH 1551 0
DWIDTH 16 0
BBX 15 7 0 0
BITMAP
2FF86F90
00069064
00020008
06BFFFFC
25020000
60069000
2FE46FF4
ENDCHAR
STARTCHAR ccedilla
ENCODING 231
SWIDTH 869 0
DWIDTH 9 0
BBX 8 9 0 -2
BITMAP
06FF
2900
6000
5000
6000
2900
06FF
00A0
01E0
ENDCHAR
STARTCHAR egrave
ENCODING 232
SWIDTH 910 0
DWIDTH 9 0
BBX 9 10 0 0
BITMAP
020000
008000
000000
07F800
280600
600140
7FFF40
500000
290000
06FF00
ENDCHAR
STARTCHAR eacute
ENCODING 233
SWIDTH 910 0
DWIDTH 9 0
BBX 9 10 0 0
BITMAP
002000
009000
000000
07F800
280600
600140
7FFF40
500000
290000
06FF00
ENDCHAR
STARTCHAR ecircumflex
ENCODING 234
SWIDTH 910 0
DWIDTH 9 0
BBX 9 10 0 0
BITMAP
009000
011400
000000
07F800
280600
600140
7FFF40
500000
290000
06FF00
ENDCHAR
STARTCHAR edieresis
ENCODING 235
SWIDTH 910 0
DWIDTH 9 0
BBX 9 9 0 0
BITMAP
022000
000000
07F800
280600
600140
7FFF40
500000
290000
06FF00
ENDCHAR
STARTCHAR igrave
ENCODING 236
SWIDTH 287 0
DWIDTH 3 0
BBX 2 10 0 0
BITMAP
80
60
00
20
20
20
20
20
20
20
ENDCHAR
STARTCHAR iacute
ENCODING 237
SWIDTH 287 0
DWIDTH 3 0
BBX 2 10 1 0
BITMAP
20
80
00
80
80
80
80
80
80
80
ENDCHAR
STARTCHAR icircumflex
ENCODING 238
SWIDTH 287 0
DWIDTH 3 0
BBX 4 10 -1 0
BITMAP
18
51
00
08
08
08
08
08
08
08
ENDCHAR
STARTCHAR idieresis
ENCODING 239
SWIDTH 287 0
DWIDTH 3 0
BBX 3 9 0 0
BITMAP
88
00
20
20
20
20
20
20
20
ENDCHAR
STARTCHAR eth
ENCODING 240
SWIDTH 910 0
DWIDTH 9 0
BBX 9 7 0 0
BITMAP
3FF800
200600
200140
FF4140
200140
200600
3FF800
ENDCHAR
STARTCHAR ntilde
ENCODING 241
SWIDTH 933 0
DWIDTH 9 0
BBX 8 10 1 0
BITMAP
0A50
05C0
0000
8BF4
B408
8005
8005
8005
8005
8005
ENDCHAR
STARTCHAR ograve
ENCODING 242
SWIDTH 983 0
DWIDTH 10 0
BBX 9 10 0 0
BITMAP
024000
005000
000000
06F900
290640
600080
500080
600080
280680
06F900
ENDCHAR
STARTCHAR oacute
ENCODING 243
SWIDTH 983 0
DWIDTH 10 0
BBX 9 10 0 0
BITMAP
001400
005000
000000
06F900
290640
600080
500080
600080
280680
06F900
ENDCHAR
STARTCHAR ocircumflex
ENCODING 244
SWIDTH 983 0
DWIDTH 10 0
BBX 9 10 0 0
BITMAP
009000
010400
000000
06F900
290640
600080
500080
600080
280680
06F900
ENDCHAR
STARTCHAR otilde
ENCODING 245
SWIDTH 983 0
DWIDTH 10 0
BBX 9 10 0 0
BITMAP
019400
027400
000000
06F900
290640
600080
500080
600080
280680
06F900
ENDCHAR
STARTCHAR odieresis
ENCODING 246
SWIDTH 983 0
DWIDTH 10 0
BBX 9 9 0 0
BITMAP
015400
000000
06F900
290640
600080
500080
600080
280680
06F900
ENDCHAR
STARTCHAR divide
ENCODING 247
SWIDTH 634 0
DWIDTH 6 0
BBX 5 5 1 1
BITMAP
0400
0000
FF80
0000
0400
ENDCHAR
STARTCHAR oslash
ENCODING 248
SWIDTH 983 0
DWIDTH 10 0
BBX 9 9 0 -1
BITMAP
000200
06FA00
290A80
601080
505040
614080
2A0680
0BF900
040000
ENDCHAR
STARTCHAR ugrave
ENCODING 249
SWIDTH 931 0
DWIDTH 9 0
BBX 8 10 1 0
BITMAP
0800
0200
0000
8005
8005
8005
8005
8009
906D
2F95
ENDCHAR
STARTCHAR uacute
ENCODING 250
SWIDTH 931 0
DWIDTH 9 0
BBX 8 10 1 0
BITMAP
0090
0240
0000
8005
8005
8005
8005
8009
906D
2F95
ENDCHAR
STARTCHAR ucircumflex
ENCODING 251
SWIDTH 931 0
DWIDTH 9 0
BBX 8 10 1 0
BITMAP
0240
0450
0000
8005
8005
8005
8005
8009
906D
2F95
ENDCHAR
STARTCHAR udieresis
ENCODING 252
SWIDTH 931 0
DWIDTH 9 0
BBX 8 9 1 0
BITMAP
0880
0000
8005
8005
8005
8005
8009
906D
2F95
ENDCHAR
STARTCHAR yacute
ENCODING 253
SWIDTH 911 0
DWIDTH 9 0
BBX 7 10 1 0
BITMAP
0080
0200
0000
8008
8008
800C
9068
2F88
0068
FF90
ENDCHAR
STARTCHAR thorn
ENCODING 254
SWIDTH 787 0
DWIDTH 8 0
BBX 6 7 1 0
BITMAP
8000
FFD0
8020
8020
FFD0
8000
8000
ENDCHAR
STARTCHAR ydieresis
ENCODING 255
SWIDTH 911 0
DWIDTH 9 0
BBX 7 9 1 0
BITMAP
0880
0000
8008
8008
800C
9068
2F88
0068
FF90
ENDCHAR
STARTCHAR Amacron
ENCODING 256
SWIDTH 812 0
DWIDTH 8 0
BBX 8 9 0 0
BITMAP
07D0
0000
0280
0290
0920
0824
2418
3FFD
9006
ENDCHAR
STARTCHAR amacron
ENCODING 257
SWIDTH 888 0
DWIDTH 9 0
BBX 8 9 0 0
BITMAP
03E0
0000
2FF8
0006
0002
06BE
2502
601A
2FE6
ENDCHAR
STARTCHAR Abreve
ENCODING 258
SWIDTH 812 0
DWIDTH 8 0
BBX 8 9 0 0
BITMAP
07D0
0000
0280
0290
0920
0824
2418
3FFD
9006
ENDCHAR
STARTCHAR abreve
ENCODING 259
SWIDTH 888 0
DWIDTH 9 0
BBX 8 9 0 0
BITMAP
02E0
0000
2FF8
0006
0002
06BE
2502
601A
2FE6
ENDCHAR
STARTCHAR Aogonek
ENCODING 260
SWIDTH 812 0
DWIDTH 8 0
BBX 9 9 0 -2
BITMAP
028000
029000
092000
082400
241800
3FFD00
900600
000500
000780
ENDCHAR
STARTCHAR aogonek
ENCODING 261
SWIDTH 888 0
DWIDTH 9 0
BBX 9 9 0 -2
BITMAP
2FF800
000600
000200
06BE00
250200
600600
2FE600
000500
000780
ENDCHAR
STARTCHAR Cacute
ENCODING 262
SWIDTH 869 0
DWIDTH 9 0
BBX 8 10 0 0
BITMAP
0014
0050
0000
06FF
2900
6000
5000
6000
2900
06FF
ENDCHAR
STARTCHAR cacute
ENCODING 263
SWIDTH 869 0
DWIDTH 9 0
BBX 8 10 0 0
BITMAP
0014
0050
0000
06FF
2900
6000
5000
6000
2900
06FF
ENDCHAR
STARTCHAR Ccircumflex
ENCODING 264
SWIDTH 869 0
DWIDTH 9 0
BBX 8 10 0 0
BITMAP
0090
0114
0000
06FF
2900
6000
5000
6000
2900
06FF
ENDCHAR
STARTCHAR ccircumflex
ENCODING 265
SWIDTH 869 0
DWIDTH 9 0
BBX 8 10 0 0
BITMAP
0090
0114
0000
06FF
2900
6000
5000
6000
2900
06FF
ENDCHAR
STARTCHAR Cdotaccent
ENCODING 266
SWIDTH 869 0
DWIDTH 9 0
BBX 8 9 0 0
BITMAP
0090
0000
06FF
2900
6000
5000
6000
2900
06FF
ENDCHAR
STARTCHAR cdotaccent
ENCODING 267
SWIDTH 869 0
DWIDTH 9 0
BBX 8 9 0 0
BITMAP
0090
0000
06FF
2900
6000
5000
6000
2900
06FF
ENDCHAR
STARTCHAR Ccaron
ENCODING 268
SWIDTH 869 0
DWIDTH 9 0
BBX 8 10 0 0
BITMAP
0114
0090
0000
06FF
2900
6000
5000
6000
2900
06FF
ENDCHAR
STARTCHAR ccaron
ENCODING 269
SWIDTH 869 0
DWIDTH 9 0
BBX 8 10 0 0
BITMAP
0114
0090
0000
06FF
2900
6000
5000
6000
2900
06FF
ENDCHAR
STARTCHAR Dcaron
ENCODING 270
SWIDTH 910 0
DWIDTH 9 0
BBX 8 10 1 0
BITMAP
1140
0900
0000
FFE0
8018
8005
8005
8005
801C
FFE0
ENDCHAR
STARTCHAR dcaron
ENCODING 271
SWIDTH 910 0
DWIDTH 9 0
BBX 8 10 1 0
BITMAP
1140
0900
0000
FFE0
8018
8005
8005
8005
801C
FFE0
ENDCHAR
STARTCHAR Dcroat
ENCODING 272
SWIDTH 910 0
DWIDTH 9 0
BBX 9 7 0 0
BITMAP
3FF800
200600
200140
FF4140
200140
200600
3FF800
ENDCHAR
STARTCHAR dcroat
ENCODING 273
SWIDTH 910 0
DWIDTH 9 0
BBX 9 7 0 0
BITMAP
3FF800
200600
200140
FF4140
200140
200600
3FF800
ENDCHAR
STARTCHAR Emacron
ENCODING 274
SWIDTH 754 0
DWIDTH 8 0
BBX 6 9 1 0
BITMAP
1F40
0000
FFE0
8000
8000
FFD0
8000
8000
FFE0
ENDCHAR
STARTCHAR emacron
ENCODING 275
SWIDTH 910 0
DWIDTH 9 0
BBX 9 9 0 0
BITMAP
02F000
000000
07F800
280600
600140
7FFF40
500000
290000
06FF00
ENDCHAR
STARTCHAR Ebreve
ENCODING 276
SWIDTH 754 0
DWIDTH 8 0
BBX 6 9 1 0
BITMAP
1F40
0000
FFE0
8000
8000
FFD0
8000
8000
FFE0
ENDCHAR
STARTCHAR ebreve
ENCODING 277
SWIDTH 910 0
DWIDTH 9 0
BBX 9 9 0 0
BITMAP
02E000
000000
07F800
280600
600140
7FFF40
500000
290000
06FF00
ENDCHAR
STARTCHAR Edotaccent
ENCODING 278
SWIDTH 754 0
DWIDTH 8 0
BBX 6 9 1 0
BITMAP
0900
0000
FFE0
8000
8000
FFD0
8000
8000
FFE0
ENDCHAR
STARTCHAR edotaccent
ENCODING 279
SWIDTH 910 0
DWIDTH 9 0
BBX 9 9 0 0
BITMAP
008000
000000
07F800
280600
600140
7FFF40
500000
290000
06FF00
ENDCHAR
STARTCHAR Eogonek
ENCODING 280
SWIDTH 754 0
DWIDTH 8 0
BBX 6 9 1 -2
BITMAP
FFE0
8000
8000
FFD0
8000
8000
FFE0
0040
01E0
ENDCHAR
STARTCHAR eogonek
ENCODING 281
SWIDTH 910 0
DWIDTH 9 0
BBX 9 9 0 -2
BITMAP
07F800
280600
600140
7FFF40
500000
290000
06FF00
000800
000B40
ENDCHAR
STARTCHAR Ecaron
ENCODING 282
SWIDTH 754 0
DWIDTH 8 0
BBX 6 10 1 0
BITMAP
1140
0900
0000
FFE0
8000
8000
FFD0
8000
8000
FFE0
ENDCHAR
STARTCHAR ecaron
ENCODING 283
SWIDTH 910 0
DWIDTH 9 0
BBX 9 10 0 0
BITMAP
011400
009000
000000
07F800
280600
600140
7FFF40
500000
290000
06FF00
ENDCHAR
STARTCHAR Gcircumflex
ENCODING 284
SWIDTH 910 0
DWIDTH 9 0
BBX 9 10 0 0
BITMAP
009000
010400
000000
06FF00
290000
600000
500000
603F40
290140
06FE00
ENDCHAR
STARTCHAR gcircumflex
ENCODING 285
SWIDTH 910 0
DWIDTH 9 0
BBX 9 10 0 0
BITMAP
009000
010400
000000
06FF00
290000
600000
500000
603F40
290140
06FE00
ENDCHAR
STARTCHAR Gbreve
ENCODING 286
SWIDTH 910 0
DWIDTH 9 0
BBX 9 9 0 0
BITMAP
01F400
000000
06FF00
290000
600000
500000
603F40
290140
06FE00
ENDCHAR
STARTCHAR gbreve
ENCODING 287
SWIDTH 910 0
DWIDTH 9 0
BBX 9 9 0 0
BITMAP
01F400
000000
06FF00
290000
600000
500000
603F40
290140
06FE00
ENDCHAR
STARTCHAR Gdotaccent
ENCODING 288
SWIDTH 910 0
DWIDTH 9 0
BBX 9 9 0 0
BITMAP
005000
000000
06FF00
290000
600000
500000
603F40
290140
06FE00
ENDCHAR
STARTCHAR gdotaccent
ENCODING 289
SWIDTH 910 0
DWIDTH 9 0
BBX 9 9 0 0
BITMAP
005000
000000
06FF00
290000
600000
500000
603F40
290140
06FE00
ENDCHAR
STARTCHAR Gcommaaccent
ENCODING 290
SWIDTH 910 0
DWIDTH 9 0
BBX 9 10 0 -3
BITMAP
06FF00
290000
600000
500000
603F40
290140
06FE00
000000
005000
005000
ENDCHAR
STARTCHAR gcommaaccent
ENCODING 291
SWIDTH 910 0
DWIDTH 9 0
BBX 9 10 0 -3
BITMAP
06FF00
290000
600000
500000
603F40
290140
06FE00
000000
005000
005000
ENDCHAR
STARTCHAR Hcircumflex
ENCODING 292
SWIDTH 949 0
DWIDTH 10 0
BBX 8 10 1 0
BITMAP
0240
0450
0000
8005
8005
8005
FFFD
8005
8005
8005
ENDCHAR
STARTCHAR hcircumflex
ENCODING 293
SWIDTH 949 0
DWIDTH 10 0
BBX 8 10 1 0
BITMAP
0240
0450
0000
8005
8005
8005
FFFD
8005
8005
8005
ENDCHAR
STARTCHAR Hbar
ENCODING 294
SWIDTH 949 0
DWIDTH 10 0
BBX 10 7 0 0
BITMAP
200140
BFFFD0
200140
3FFF40
200140
200140
200140
ENDCHAR
STARTCHAR hbar
ENCODING 295
SWIDTH 949 0
DWIDTH 10 0
BBX 10 7 0 0
BITMAP
200140
BFFFD0
200140
3FFF40
200140
200140
200140
ENDCHAR
STARTCHAR Itilde
ENCODING 296
SWIDTH 287 0
DWIDTH 3 0
BBX 4 10 -1 0
BITMAP
35
5A
00
08
08
08
08
08
08
08
ENDCHAR
STARTCHAR itilde
ENCODING 297
SWIDTH 287 0
DWIDTH 3 0
BBX 4 10 -1 0
BITMAP
35
5A
00
08
08
08
08
08
08
08
ENDCHAR
STARTCHAR Imacron
ENCODING 298
SWIDTH 287 0
DWIDTH 3 0
BBX 3 9 0 0
BITMAP
F8
00
20
20
20
20
20
20
20
ENDCHAR
STARTCHAR imacron
ENCODING 299
SWIDTH 287 0
DWIDTH 3 0
BBX 3 9 0 0
BITMAP
F8
00
20
20
20
20
20
20
20
ENDCHAR
STARTCHAR Ibreve
ENCODING 300
SWIDTH 287 0
DWIDTH 3 0
BBX 3 9 0 0
BITMAP
B8
00
20
20
20
20
20
20
20
ENDCHAR
STARTCHAR ibreve
ENCODING 301
SWIDTH 287 0
DWIDTH 3 0
BBX 3 9 0 0
BITMAP
B8
00
20
20
20
20
20
20
20
ENDCHAR
STARTCHAR Iogonek
ENCODING 302
SWIDTH 287 0
DWIDTH 3 0
BBX 3 9 0 -2
BITMAP
20
20
20
20
20
20
20
40
B4
ENDCHAR
STARTCHAR iogonek
ENCODING 303
SWIDTH 287 0
DWIDTH 3 0
BBX 3 9 0 -2
BITMAP
20
20
20
20
20
20
20
40
B4
ENDCHAR
STARTCHAR Idotaccent
ENCODING 304
SWIDTH 287 0
DWIDTH 3 0
BBX 1 9 1 0
BITMAP
80
00
80
80
80
80
80
80
80
ENDCHAR
STARTCHAR dotlessi
ENCODING 305
SWIDTH 287 0
DWIDTH 3 0
BBX 1 7 1 0
BITMAP
80
80
80
80
80
80
80
ENDCHAR
STARTCHAR IJ
ENCODING 306
SWIDTH 877 0
DWIDTH 9 0
BBX 7 7 1 0
BITMAP
8008
8008
8008
8008
8008
8018
8FE0
ENDCHAR
STARTCHAR ij
ENCODING 307
SWIDTH 877 0
DWIDTH 9 0
BBX 7 7 1 0
BITMAP
8008
8008
8008
8008
8008
8018
8FE0
ENDCHAR
STARTCHAR Jcircumflex
ENCODING 308
SWIDTH 590 0
DWIDTH 6 0
BBX 6 10 0 0
BITMAP
0190
0110
0000
0080
0080
0080
0080
0080
0180
FE00
ENDCHAR
STARTCHAR jcircumflex
ENCODING 309
SWIDTH 590 0
DWIDTH 6 0
BBX 6 10 0 0
BITMAP
0190
0110
0000
0080
0080
0080
0080
0080
0180
FE00
ENDCHAR
STARTCHAR Kcommaaccent
ENCODING 310
SWIDTH 806 0
DWIDTH 8 0
BBX 7 10 1 -3
BITMAP
8060
8140
9800
A000
8900
8180
8024
0000
0500
0400
ENDCHAR
STARTCHAR kcommaaccent
ENCODING 311
SWIDTH 867 0
DWIDTH 9 0
BBX 7 10 1 -3
BITMAP
8008
8020
8190
FF40
81A0
8018
8008
0000
0200
0100
ENDCHAR
STARTCHAR kgreenlandic
ENCODING 312
SWIDTH 867 0
DWIDTH 9 0
BBX 7 7 1 0
BITMAP
8008
8020
8190
FF40
81A0
8018
8008
ENDCHAR
STARTCHAR Lacute
ENCODING 313
SWIDTH 701 0
DWIDTH 7 0
BBX 6 10 1 0
BITMAP
2000
8000
0000
8000
8000
8000
8000
8000
8000
FFE0
ENDCHAR
STARTCHAR lacute
ENCODING 314
SWIDTH 709 0
DWIDTH 7 0
BBX 6 10 1 0
BITMAP
2000
8000
0000
8000
8000
8000
8000
8000
9000
6FF0
ENDCHAR
STARTCHAR Lcommaaccent
ENCODING 315
SWIDTH 701 0
DWIDTH 7 0
BBX 6 10 1 -3
BITMAP
8000
8000
8000
8000
8000
8000
FFE0
0000
0500
0400
ENDCHAR
STARTCHAR lcommaaccent
ENCODING 316
SWIDTH 709 0
DWIDTH 7 0
BBX 6 10 1 -3
BITMAP
8000
8000
8000
8000
8000
9000
6FF0
0000
0500
0500
ENDCHAR
STARTCHAR Lcaron
ENCODING 317
SWIDTH 701 0
DWIDTH 7 0
BBX 6 7 1 0
BITMAP
8140
8200
8000
8000
8000
8000
FFE0
ENDCHAR
STARTCHAR lcaron
ENCODING 318
SWIDTH 709 0
DWIDTH 7 0
BBX 6 7 1 0
BITMAP
8140
8200
8000
8000
8000
9000
6FF0
ENDCHAR
STARTCHAR Ldot
ENCODING 319
SWIDTH 701 0
DWIDTH 7 0
BBX 6 7 1 0
BITMAP
8000
8000
8000
8240
8000
8000
FFE0
ENDCHAR
STARTCHAR ldotaccent
ENCODING 320
SWIDTH 709 0
DWIDTH 7 0
BBX 6 7 1 0
BITMAP
8000
8000
8000
8140
8000
9000
6FF0
ENDCHAR
STARTCHAR Lslash
ENCODING 321
SWIDTH 701 0
DWIDTH 7 0
BBX 7 7 0 0
BITMAP
2000
2000
2A00
A400
2000
2000
3FF8
ENDCHAR
STARTCHAR lslash
ENCODING 322
SWIDTH 709 0
DWIDTH 7 0
BBX 7 7 0 0
BITMAP
2000
2000
2A00
A400
2000
2400
1BFC
ENDCHAR
STARTCHAR Nacute
ENCODING 323
SWIDTH 936 0
DWIDTH 9 0
BBX 8 10 1 0
BITMAP
0090
0240
0000
D005
A405
8905
8205
8085
8025
8009
ENDCHAR
STARTCHAR nacute
ENCODING 324
SWIDTH 933 0
DWIDTH 9 0
BBX 8 10 1 0
BITMAP
0080
0240
0000
8BF4
B408
8005
8005
8005
8005
8005
ENDCHAR
STARTCHAR Ncommaaccent
ENCODING 325
SWIDTH 936 0
DWIDTH 9 0
BBX 8 10 1 -3
BITMAP
D005
A405
8905
8205
8085
8025
8009
0000
0200
0200
ENDCHAR
STARTCHAR ncommaaccent
ENCODING 326
SWIDTH 933 0
DWIDTH 9 0
BBX 8 10 1 -3
BITMAP
8BF4
B408
8005
8005
8005
8005
8005
0000
0200
0200
ENDCHAR
STARTCHAR Ncaron
ENCODING 327
SWIDTH 936 0
DWIDTH 9 0
BBX 8 10 1 0
BITMAP
0450
0240
0000
D005
A405
8905
8205
8085
8025
8009
ENDCHAR
STARTCHAR ncaron
ENCODING 328
SWIDTH 933 0
DWIDTH 9 0
BBX 8 10 1 0
BITMAP
0450
0240
0000
8BF4
B408
8005
8005
8005
8005
8005
ENDCHAR
STARTCHAR napostrophe
ENCODING 329
SWIDTH 1025 0
DWIDTH 10 0
BBX 9 7 0 0
BITMAP
88BE40
8E4180
080080
080040
080040
080040
080040
ENDCHAR
STARTCHAR Eng
ENCODING 330
SWIDTH 936 0
DWIDTH 9 0
BBX 8 7 1 0
BITMAP
9005
9805
8205
8095
8019
8008
87F4
ENDCHAR
STARTCHAR eng
ENCODING 331
SWIDTH 933 0
DWIDTH 9 0
BBX 8 7 1 0
BITMAP
8BF4
B408
8005
8005
8005
8008
83F4
ENDCHAR
STARTCHAR Omacron
ENCODING 332
SWIDTH 983 0
DWIDTH 10 0
BBX 9 9 0 0
BITMAP
01F400
000000
06F900
290640
600080
500080
600080
280680
06F900
ENDCHAR
STARTCHAR omacron
ENCODING 333
SWIDTH 983 0
DWIDTH 10 0
BBX 9 9 0 0
BITMAP
01F400
000000
06F900
290640
600080
500080
600080
280680
06F900
ENDCHAR
STARTCHAR Obreve
ENCODING 334
SWIDTH 983 0
DWIDTH 10 0
BBX 9 9 0 0
BITMAP
01F400
000000
06F900
290640
600080
500080
600080
280680
06F900
ENDCHAR
STARTCHAR obreve
ENCODING 335
SWIDTH 983 0
DWIDTH 10 0
BBX 9 9 0 0
BITMAP
01F400
000000
06F900
290640
600080
500080
600080
280680
06F900
ENDCHAR
STARTCHAR Ohungarumlaut
ENCODING 336
SWIDTH 983 0
DWIDTH 10 0
BBX 9 10 0 0
BITMAP
008800
015400
000000
06F900
290640
600080
500080
600080
280680
06F900
ENDCHAR
STARTCHAR ohungarumlaut
ENCODING 337
SWIDTH 983 0
DWIDTH 10 0
BBX 9 10 0 0
BITMAP
008800
015400
000000
06F900
290640
600080
500080
600080
280680
06F900
ENDCHAR
STARTCHAR OE
ENCODING 338
SWIDTH 1338 0
DWIDTH 13 0
BBX 13 7 0 0
BITMAP
06FFFF80
29020000
60020000
5003FF40
60020000
28020000
06FFFF80
ENDCHAR
STARTCHAR oe
ENCODING 339
SWIDTH 1688 0
DWIDTH 17 0
BBX 17 7 0 0
BITMAP
06F90BF400
2906A40600
6000900100
5000BFFF40
6000900000
2806A40000
06F90BFE00
ENDCHAR
STARTCHAR Racute
ENCODING 340
SWIDTH 833 0
DWIDTH 8 0
BBX 7 10 1 0
BITMAP
0140
0500
0000
FFE0
8024
8024
FFE0
8080
8020
8018
ENDCHAR
STARTCHAR racute
ENCODING 341
SWIDTH 609 0
DWIDTH 6 0
BBX 5 10 1 0
BITMAP
0200
0800
0000
8BC0
A400
8000
8000
8000
8000
8000
ENDCHAR
STARTCHAR Rcommaaccent
ENCODING 342
SWIDTH 833 0
DWIDTH 8 0
BBX 7 10 1 -3
BITMAP
FFE0
8024
8024
FFE0
8080
8020
8018
0000
0200
0500
ENDCHAR
STARTCHAR rcommaaccent
ENCODING 343
SWIDTH 609 0
DWIDTH 6 0
BBX 5 10 1 -3
BITMAP
8BC0
A400
8000
8000
8000
8000
8000
0000
8000
8000
ENDCHAR
STARTCHAR Rcaron
ENCODING 344
SWIDTH 833 0
DWIDTH 8 0
BBX 7 10 1 0
BITMAP
1140
0900
0000
FFE0
8024
8024
FFE0
8080
8020
8018
ENDCHAR
STARTCHAR rcaron
ENCODING 345
SWIDTH 609 0
DWIDTH 6 0
BBX 5 10 1 0
BITMAP
5100
1800
0000
8BC0
A400
8000
8000
8000
8000
8000
ENDCHAR
STARTCHAR Sacute
ENCODING 346
SWIDTH 787 0
DWIDTH 8 0
BBX 6 10 1 0
BITMAP
0140
0500
0000
7FE0
8000
9400
1A80
0020
0060
FF90
ENDCHAR
STARTCHAR sacute
ENCODING 347
SWIDTH 787 0
DWIDTH 8 0
BBX 6 10 1 0
BITMAP
0140
0500
0000
7FE0
8000
9400
1A80
0020
0060
FF90
ENDCHAR
STARTCHAR Scircumflex
ENCODING 348
SWIDTH 787 0
DWIDTH 8 0
BBX 6 10 1 0
BITMAP
0900
1140
0000
7FE0
8000
9400
1A80
0020
0060
FF90
ENDCHAR
STARTCHAR scircumflex
ENCODING 349
SWIDTH 787 0
DWIDTH 8 0
BBX 6 10 1 0
BITMAP
0900
1140
0000
7FE0
8000
9400
1A80
0020
0060
FF90
ENDCHAR
STARTCHAR Scedilla
ENCODING 350
SWIDTH 787 0
DWIDTH 8 0
BBX 6 9 1 -2
BITMAP
7FE0
8000
9000
1A80
0020
0060
FF90
0700
1E00
ENDCHAR
STARTCHAR scedilla
ENCODING 351
SWIDTH 787 0
DWIDTH 8 0
BBX 6 9 1 -2
BITMAP
7FE0
8000
9000
1A80
0020
0060
FF90
0700
1E00
ENDCHAR
STARTCHAR Scaron
ENCODING 352
SWIDTH 787 0
DWIDTH 8 0
BBX 6 10 1 0
BITMAP
1140
0900
0000
7FE0
8000
9400
1A80
0020
0060
FF90
ENDCHAR
STARTCHAR scaron
ENCODING 353
SWIDTH 787 0
DWIDTH 8 0
BBX 6 10 1 0
BITMAP
1140
0900
0000
7FE0
8000
9400
1A80
0020
0060
FF90
ENDCHAR
STARTCHAR Tcommaaccent
ENCODING 354
SWIDTH 708 0
DWIDTH 7 0
BBX 7 10 0 -3
BITMAP
BFFC
0200
0200
0200
0200
0200
0200
0000
0200
0200
ENDCHAR
STARTCHAR tcommaaccent
ENCODING 355
SWIDTH 708 0
DWIDTH 7 0
BBX 7 10 0 -3
BITMAP
BFFC
0200
0200
0200
0200
0200
0200
0000
0200
0200
ENDCHAR
STARTCHAR Tcaron
ENCODING 356
SWIDTH 708 0
DWIDTH 7 0
BBX 7 10 0 0
BITMAP
0450
0240
0000
BFFC
0200
0200
0200
0200
0200
0200
ENDCHAR
STARTCHAR tcaron
ENCODING 357
SWIDTH 708 0
DWIDTH 7 0
BBX 7 10 0 0
BITMAP
0450
0240
0000
BFFC
0200
0200
0200
0200
0200
0200
ENDCHAR
STARTCHAR Tbar
ENCODING 358
SWIDTH 708 0
DWIDTH 7 0
BBX 7 7 0 0
BITMAP
BFFC
0200
0200
3FF4
0200
0200
0200
ENDCHAR
STARTCHAR tbar
ENCODING 359
SWIDTH 708 0
DWIDTH 7 0
BBX 7 7 0 0
BITMAP
BFFC
0200
0200
3FF4
0200
0200
0200
ENDCHAR
STARTCHAR Utilde
ENCODING 360
SWIDTH 891 0
DWIDTH 9 0
BBX 7 10 1 0
BITMAP
0D40
1680
0000
8008
8008
8008
8008
8008
9028
2FE0
ENDCHAR
STARTCHAR utilde
ENCODING 361
SWIDTH 931 0
DWIDTH 9 0
BBX 8 10 1 0
BITMAP
0A50
05C0
0000
8005
8005
8005
8005
8009
906D
2F95
ENDCHAR
STARTCHAR Umacron
ENCODING 362
SWIDTH 891 0
DWIDTH 9 0
BBX 7 9 1 0
BITMAP
0F80
0000
8008
8008
8008
8008
8008
9028
2FE0
ENDCHAR
STARTCHAR umacron
ENCODING 363
SWIDTH 931 0
DWIDTH 9 0
BBX 8 9 1 0
BITMAP
0BC0
0000
8005
8005
8005
8005
8009
906D
2F95
ENDCHAR
STARTCHAR Ubreve
ENCODING 364
SWIDTH 891 0
DWIDTH 9 0
BBX 7 9 1 0
BITMAP
0B80
0000
8008
8008
8008
8008
8008
9028
2FE0
ENDCHAR
STARTCHAR ubreve
ENCODING 365
SWIDTH 931 0
DWIDTH 9 0
BBX 8 9 1 0
BITMAP
0B80
0000
8005
8005
8005
8005
8009
906D
2F95
ENDCHAR
STARTCHAR Uring
ENCODING 366
SWIDTH 891 0
DWIDTH 9 0
BBX 7 10 1 0
BITMAP
0B40
0B40
0000
8008
8008
8008
8008
8008
9028
2FE0
ENDCHAR
STARTCHAR uring
ENCODING 367
SWIDTH 931 0
DWIDTH 9 0
BBX 8 10 1 0
BITMAP
0780
0780
0000
8005
8005
8005
8005
8009
906D
2F95
ENDCHAR
STARTCHAR Uhungarumlaut
ENCODING 368
SWIDTH 891 0
DWIDTH 9 0
BBX 7 10 1 0
BITMAP
0250
0880
0000
8008
8008
8008
8008
8008
9028
2FE0
ENDCHAR
STARTCHAR uhungarumlaut
ENCODING 369
SWIDTH 931 0
DWIDTH 9 0
BBX 8 10 1 0
BITMAP
0210
0580
0000
8005
8005
8005
8005
8009
906D
2F95
ENDCHAR
STARTCHAR Uogonek
ENCODING 370
SWIDTH 891 0
DWIDTH 9 0
BBX 7 9 1 -2
BITMAP
8008
8008
8008
8008
8008
9028
2FE0
0500
0780
ENDCHAR
STARTCHAR uogonek
ENCODING 371
SWIDTH 931 0
DWIDTH 9 0
BBX 8 9 1 -2
BITMAP
8005
8005
8005
8005
8009
906D
2F95
0004
001F
ENDCHAR
STARTCHAR Wcircumflex
ENCODING 372
SWIDTH 1266 0
DWIDTH 13 0
BBX 12 10 0 0
BITMAP
001800
005100
000000
501C02
202502
202205
145208
088148
058094
034060
ENDCHAR
STARTCHAR wcircumflex
ENCODING 373
SWIDTH 1266 0
DWIDTH 13 0
BBX 12 10 0 0
BITMAP
001800
005100
000000
501C02
202502
202205
145208
088148
058094
034060
ENDCHAR
STARTCHAR Ycircumflex
ENCODING 374
SWIDTH 763 0
DWIDTH 8 0
BBX 7 10 0 0
BITMAP
0240
0450
0000
5008
1420
0990
0280
0100
0100
0100
ENDCHAR
STARTCHAR ycircumflex
ENCODING 375
SWIDTH 911 0
DWIDTH 9 0
BBX 7 10 1 0
BITMAP
0600
1440
0000
8008
8008
800C
9068
2F88
0068
FF90
ENDCHAR
STARTCHAR Ydieresis
ENCODING 376
SWIDTH 763 0
DWIDTH 8 0
BBX 7 9 0 0
BITMAP
0990
0000
5008
1420
0990
0280
0100
0100
0100
ENDCHAR
STARTCHAR Zacute
ENCODING 377
SWIDTH 728 0
DWIDTH 7 0
BBX 7 10 0 0
BITMAP
0090
0240
0000
3FF4
0010
0040
0100
0400
1000
7FF8
ENDCHAR
STARTCHAR zacute
ENCODING 378
SWIDTH 728 0
DWIDTH 7 0
BBX 7 10 0 0
BITMAP
0090
0240
0000
3FF4
0010
0040
0100
0400
1000
7FF8
ENDCHAR
STARTCHAR Zdotaccent
ENCODING 379
SWIDTH 728 0
DWIDTH 7 0
BBX 7 9 0 0
BITMAP
0200
0000
3FF4
0010
0040
0100
0400
1000
7FF8
ENDCHAR
STARTCHAR zdotaccent
ENCODING 380
SWIDTH 728 0
DWIDTH 7 0
BBX 7 9 0 0
BITMAP
0200
0000
3FF4
0010
0040
0100
0400
1000
7FF8
ENDCHAR
STARTCHAR Zcaron
ENCODING 381
SWIDTH 728 0
DWIDTH 7 0
BBX 7 10 0 0
BITMAP
0450
0240
0000
3FF4
0010
0040
0100
0400
1000
7FF8
ENDCHAR
STARTCHAR zcaron
ENCODING 382
SWIDTH 728 0
DWIDTH 7 0
BBX 7 10 0 0
BITMAP
0450
0240
0000
3FF4
0010
0040
0100
0400
1000
7FF8
ENDCHAR
STARTCHAR florin
ENCODING 402
SWIDTH 835 0
DWIDTH 8 0
BBX 8 7 0 0
BITMAP
002F
0090
07F8
0080
0140
0200
BD00
ENDCHAR
STARTCHAR AEacute
ENCODING 508
SWIDTH 1172 0
DWIDTH 12 0
BBX 11 10 0 0
BITMAP
000080
000200
000000
00BFFC
016000
022000
042FF8
1FF000
202000
802FFC
ENDCHAR
STARTCHAR aeacute
ENCODING 509
SWIDTH 1551 0
DWIDTH 16 0
BBX 15 10 0 0
BITMAP
00005000
00014000
00000000
2FF86F90
00069064
00020008
06BFFFFC
25020000
60069000
2FE46FF4
ENDCHAR
STARTCHAR Oslashacute
ENCODING 510
SWIDTH 983 0
DWIDTH 10 0
BBX 9 11 0 -1
BITMAP
001400
005000
000200
06FA00
290A80
601080
505040
614080
2A0680
0BF900
040000
ENDCHAR
STARTCHAR oslashacute
ENCODING 511
SWIDTH 983 0
DWIDTH 10 0
BBX 9 11 0 -1
BITMAP
001400
005000
000200
06FA00
290A80
601080
505040
614080
2A0680
0BF900
040000
ENDCHAR
STARTCHAR dotlessj
ENCODING 567
SWIDTH 590 0
DWIDTH 6 0
BBX 5 7 0 0
BITMAP
0080
0080
0080
0080
0080
0180
FE00
ENDCHAR
STARTCHAR circumflex
ENCODING 710
SWIDTH 527 0
DWIDTH 5 0
BBX 4 2 1 6
BITMAP
24
45
ENDCHAR
STARTCHAR caron
ENCODING 711
SWIDTH 527 0
DWIDTH 5 0
BBX 4 2 1 6
BITMAP
45
24
ENDCHAR
STARTCHAR breve
ENCODING 728
SWIDTH 527 0
DWIDTH 5 0
BBX 3 1 1 6
BITMAP
B8
ENDCHAR
STARTCHAR dotaccent
ENCODING 729
SWIDTH 527 0
DWIDTH 5 0
BBX 1 1 2 6
BITMAP
80
ENDCHAR
STARTCHAR ring
ENCODING 730
SWIDTH 527 0
DWIDTH 5 0
BBX 3 2 1 6
BITMAP
78
78
ENDCHAR
STARTCHAR ogonek
ENCODING 731
SWIDTH 527 0
DWIDTH 5 0
BBX 3 2 1 -2
BITMAP
10
78
ENDCHAR
STARTCHAR tilde
ENCODING 732
SWIDTH 527 0
DWIDTH 5 0
BBX 4 2 1 6
BITMAP
A5
5C
ENDCHAR
STARTCHAR hungarumlaut
ENCODING 733
SWIDTH 527 0
DWIDTH 5 0
BBX 4 2 1 6
BITMAP
21
58
ENDCHAR
STARTCHAR commaaccent
ENCODING 806
SWIDTH 527 0
DWIDTH 5 0
BBX 1 2 2 -3
BITMAP
80
80
ENDCHAR
STARTCHAR mu
ENCODING 956
SWIDTH 705 0
DWIDTH 7 0
BBX 6 7 0 -2
BITMAP
1020
2020
2020
30A0
6F60
5000
8000
ENDCHAR
STARTCHAR Wgrave
ENCODING 7808
SWIDTH 1266 0
DWIDTH 13 0
BBX 12 10 0 0
BITMAP
006000
001800
000000
501C02
202502
202205
145208
088148
058094
034060
ENDCHAR
STARTCHAR wgrave
ENCODING 7809
SWIDTH 1266 0
DWIDTH 13 0
BBX 12 10 0 0
BITMAP
006000
001800
000000
501C02
202502
202205
145208
088148
058094
034060
ENDCHAR
STARTCHAR Wacute
ENCODING 7810
SWIDTH 1266 0
DWIDTH 13 0
BBX 12 10 0 0
BITMAP
000200
000800
000000
501C02
202502
202205
145208
088148
058094
034060
ENDCHAR
STARTCHAR wacute
ENCODING 7811
SWIDTH 1266 0
DWIDTH 13 0
BBX 12 10 0 0
BITMAP
000200
000800
000000
501C02
202502
202205
145208
088148
058094
034060
ENDCHAR
STARTCHAR Wdieresis
ENCODING 7812
SWIDTH 1266 0
DWIDTH 13 0
BBX 12 9 0 0
BITMAP
002200
000000
501C02
202502
202205
145208
088148
058094
034060
ENDCHAR
STARTCHAR wdieresis
ENCODING 7813
SWIDTH 1266 0
DWIDTH 13 0
BBX 12 9 0 0
BITMAP
002200
000000
501C02
202502
202205
145208
088148
058094
034060
ENDCHAR
STARTCHAR Ygrave
ENCODING 7922
SWIDTH 763 0
DWIDTH 8 0
BBX 7 10 0 0
BITMAP
0900
0240
0000
5008
1420
0990
0280
0100
0100
0100
ENDCHAR
STARTCHAR ygrave
ENCODING 7923
SWIDTH 911 0
DWIDTH 9 0
BBX 7 10 1 0
BITMAP
0800
0600
0000
8008
8008
800C
9068
2F88
0068
FF90
ENDCHAR
STARTCHAR endash
ENCODING 8211
SWIDTH 419 0
DWIDTH 4 0
BBX 4 1 0 3
BITMAP
BF
ENDCHAR
STARTCHAR emdash
ENCODING 8212
SWIDTH 1000 0
DWIDTH 10 0
BBX 10 1 0 3
BITMAP
FFFFF0
ENDCHAR
STARTCHAR quoteleft
ENCODING 8216
SWIDTH 163 0
DWIDTH 2 0
BBX 2 2 0 5
BITMAP
50
80
ENDCHAR
STARTCHAR quoteright
ENCODING 8217
SWIDTH 163 0
DWIDTH 2 0
BBX 2 2 0 5
BITMAP
50
80
ENDCHAR
STARTCHAR quotesinglbase
ENCODING 8218
SWIDTH 163 0
DWIDTH 2 0
BBX 2 2 0 -1
BITMAP
50
80
ENDCHAR
STARTCHAR quotedblleft
ENCODING 8220
SWIDTH 303 0
DWIDTH 3 0
BBX 3 2 0 5
BITMAP
58
94
ENDCHAR
STARTCHAR quotedblright
ENCODING 8221
SWIDTH 303 0
DWIDTH 3 0
BBX 3 2 0 5
BITMAP
58
94
ENDCHAR
STARTCHAR quotedblbase
ENCODING 8222
SWIDTH 303 0
DWIDTH 3 0
BBX 3 2 0 -1
BITMAP
58
94
ENDCHAR
STARTCHAR dagger
ENCODING 8224
SWIDTH 500 0
DWIDTH 5 0
BBX 3 7 1 0
BITMAP
20
20
FC
20
20
20
20
ENDCHAR
STARTCHAR daggerdbl
ENCODING 8225
SWIDTH 500 0
DWIDTH 5 0
BBX 3 7 1 0
BITMAP
20
20
FC
20
FC
20
20
ENDCHAR
STARTCHAR bullet
ENCODING 8226
SWIDTH 352 0
DWIDTH 4 0
BBX 2 2 1 2
BITMAP
D0
E0
ENDCHAR
STARTCHAR ellipsis
ENCODING 8230
SWIDTH 555 0
DWIDTH 6 0
BBX 5 1 0 0
BITMAP
9980
ENDCHAR
STARTCHAR perthousand
ENCODING 8240
SWIDTH 1401 0
DWIDTH 14 0
BBX 14 7 0 0
BITMAP
2E050000
52480000
2E200000
00800000
015F4B80
02209850
081F4B80
ENDCHAR
STARTCHAR guilsinglleft
ENCODING 8249
SWIDTH 257 0
DWIDTH 3 0
BBX 2 3 0 2
BITMAP
20
90
20
ENDCHAR
STARTCHAR guilsinglright
ENCODING 8250
SWIDTH 257 0
DWIDTH 3 0
BBX 2 3 0 2
BITMAP
50
20
50
ENDCHAR
STARTCHAR fraction
ENCODING 8260
SWIDTH 200 0
DWIDTH 2 0
BBX 6 7 -2 0
BITMAP
0020
0080
0200
0500
0800
2000
8000
ENDCHAR
STARTCHAR Euro
ENCODING 8364
SWIDTH 833 0
DWIDTH 8 0
BBX 8 7 0 0
BITMAP
06F8
1805
BFF0
2000
BFD0
1805
06F8
ENDCHAR
STARTCHAR trademark
ENCODING 8482
SWIDTH 773 0
DWIDTH 8 0
BBX 7 3 0 4
BITMAP
BA08
1154
1154
ENDCHAR
STARTCHAR partialdiff
ENCODING 8706
SWIDTH 790 0
DWIDTH 8 0
BBX 8 7 0 0
BITMAP
0BE4
0018
0005
1BE9
6018
6014
2F90
ENDCHAR
STARTCHAR minus
ENCODING 8722
SWIDTH 634 0
DWIDTH 6 0
BBX 5 1 1 3
BITMAP
FF80
ENDCHAR
STARTCHAR uni2215
ENCODING 8725
SWIDTH 200 0
DWIDTH 2 0
BBX 6 7 -2 0
BITMAP
0020
0080
0200
0500
0800
2000
8000
ENDCHAR
STARTCHAR approxequal
ENCODING 8776
SWIDTH 634 0
DWIDTH 6 0
BBX 6 4 0 2
BITMAP
2910
56D0
2910
56D0
ENDCHAR
STARTCHAR notequal
ENCODING 8800
SWIDTH 634 0
DWIDTH 6 0
BBX 5 7 1 0
BITMAP
0500
0800
FF80
0400
FF80
2000
2000
ENDCHAR
STARTCHAR lessequal
ENCODING 8804
SWIDTH 634 0
DWIDTH 6 0
BBX 6 6 0 0
BITMAP
0090
1A40
7400
1A40
0090
3FE0
ENDCHAR
STARTCHAR greaterequal
ENCODING 8805
SWIDTH 634 0
DWIDTH 6 0
BBX 5 6 1 0
BITMAP
9000
6900
0280
6900
9000
FF80
ENDCHAR
STARTCHAR fi
ENCODING 64257
SWIDTH 1104 0
DWIDTH 11 0
BBX 9 7 1 0
BITMAP
2FF880
900080
800080
FFF480
800080
800080
800080
ENDCHAR
STARTCHAR fl
ENCODING 64258
SWIDTH 1527 0
DWIDTH 15 0
BBX 15 7 1 0
BITMAP
2FF88000
90008000
80008000
FFF48000
80008000
80009000
80002FF4
ENDCHAR
STARTCHAR .notdef
ENCODING -1
SWIDTH 1000 0
DWIDTH 10 0
BBX 1 1 0 0
BITMAP
00
ENDCHAR
ENDFONT
